<svg xmlns="http://www.w3.org/2000/svg" viewBox="0 0 256 256">
    <path fill="none" d="M0 0h256v256H0z"/>
    <path d="M216 91.31V208a8 8 0 0 1-8 8H48a8 8 0 0 1-8-8V48a8 8 0 0 1 8-8h116.69a8 8 0 0 1 5.65 2.34l43.32 43.32a8 8 0 0 1 2.34 5.65Z" fill="none" stroke="currentColor" stroke-linecap="round" stroke-linejoin="round" stroke-width="12"/>
    <path d="M80 216v-64a8 8 0 0 1 8-8h80a8 8 0 0 1 8 8v64M152 72H96" fill="none" stroke="currentColor" stroke-linecap="round" stroke-linejoin="round" stroke-width="12"/>
</svg>
